#format: frame checksums
#version: 2
#hash: MD5
#tb 0: 1/25
#media_type 0: video
#codec_id 0: h264
#dimensions 0: 352x288
#sar 0: 0/1
#stream#, dts,        pts, duration,     size, hash
0,         -1,          0,        1,    91290, e9415b65592cdbd3028db5594a880a79
0,          0,          1,        1,    77656, b4f23819d87089f6ff827589f11591e3
0,          1,          2,        1,    63506, 6cf9b3afb4693271c676cfe6ab41b77e
0,          2,          3,        1,    49596, 5c88c5f7aedd248e809232b22d9f8097
0,          3,          4,        1,    41338, 209120d756752ba607a7ad2df548a553
0,          4,          5,        1,    38906, 8f338ac7f94637022c3acb66fb81197f
0,          5,          6,        1,    36535, f175fead164cf2347390ace32d4ab253
0,          6,          7,        1,    36875, 935bb87e418cd97260409ecc3b68cf4b
0,          7,          8,        1,    37104, b3d87ab115ff3c293d131ceb268dc52a
0,          8,          9,        1,    32140, 568b6c52ea32dd8691276cd08c7199d5
0,          9,         10,        1,    32497, f979309446771c5ef535852da998f42c
0,         10,         11,        1,    30895, d1b8498982fe9ac81d3dada3072b4200
0,         11,         12,        1,    31315, 9ade3c5f3a297402de0eb3c620a3138c
0,         12,         13,        1,    31623, bb7c60dc0316fd2963d809f65d6a0ad1
0,         13,         14,        1,    31896, 7b7c8b63b1f88cc3c407ba26dd20aa26
0,         14,         15,        1,    32260, 372b543adad1a37a95eda896ad61e478
0,         15,         16,        1,    32526, 3ac1e4d5949873b045948b2153e4fa45
0,         16,         17,        1,    32853, 10ff69d29894728d599a5186e0ff7f55
0,         17,         18,        1,    30764, f622ee33d79ad0e7acebf2cd3abaf68d
0,         18,         19,        1,    31024, 6a82e5677ded29deb4f4d91af931a2a1
0,         19,         20,        1,    31327, 39a4a2be1be9da3d403ab86b31615a21
0,         20,         21,        1,    31748, 2086838e86dfc2a167153dc10a74c9dd
0,         21,         22,        1,    32006, 8d41df81e3b7c1fb0013ae1c4a3972d7
0,         22,         23,        1,    32588, 53c50b8ddd485bb32743766926f6aae0
0,         23,         24,        1,    32780, be01d6333320e215ed7ca991e38c5711
0,         24,         25,        1,    33042, b93acacc9ec8aeb157269713a8b02a37
0,         25,         26,        1,    33372, 49e34885ab8d8589f7c83c80e30fc5e1
0,         26,         27,        1,    31192, eea859744b1641cb0170816274f137ea
0,         27,         28,        1,    31341, d52d544f983d739187b5fd87b31f8dac
0,         28,         29,        1,    31575, 5164966798e4132e68c8705230af317f
0,         29,         30,        1,    31825, 81d37152f24688cbf04998d55011c428
0,         30,         31,        1,    31947, b017ec324372b433f2798cabb15d2d95
0,         31,         32,        1,    32245, 7d19aa35f7ba0b2e0fa593d1086e0836
0,         32,         33,        1,    32452, 84975a3efb6c04a31994756fc925ea0d
0,         33,         34,        1,    30387, ddb07aca2ee7454c48baf5f73ab45d34
0,         34,         35,        1,    28013, 76ac2b506d6a70d83868399ac1b7da17
0,         35,         36,        1,    28244, 5a262454514ba8b40a9fc5a19c443185
0,         36,         37,        1,    28462, 81cc191453993194e67fc4b615e71f19
0,         37,         38,        1,    28677, 4d8d388c2a90d46ab54160435f6406f9
0,         38,         39,        1,    28801, 19a481025b7b076590bb313f0335d9ca
0,         39,         40,        1,    28958, 2f283484229f0c991582b719d4b4f097
0,         40,         41,        1,    29240, 5b011bcd5653b49e1640ddd2fabf1988
0,         41,         42,        1,    29377, 11578d63610d2fff5963e398da2d3a86
0,         42,         43,        1,    29461, 399391cd7a3eb8dcdf0edb1077ff2e05
0,         43,         44,        1,    29525, 8fcfbe7d90f8323de1be116cef1ecd19
0,         44,         45,        1,    29548, a3531d7c413afb31cdf18af2a7c136ea
0,         45,         46,        1,    29648, c8d232daedf3cfba29e91997b0b39c78
0,         46,         47,        1,    29698, af3d4911552e4a4ffe75105141d79ef7
0,         47,         48,        1,    29641, a9c2604540ca2b0c20c582045e78ad9b
0,         48,         49,        1,    29712, 09878d166e4f65891b6156e356064e41
